<?xml version="1.0" encoding="utf-8"?>
<!-- Generator: Adobe Illustrator 16.0.0, SVG Export Plug-In . SVG Version: 6.00 Build 0)  -->
<!DOCTYPE svg PUBLIC "-//W3C//DTD SVG 1.1//EN" "http://www.w3.org/Graphics/SVG/1.1/DTD/svg11.dtd">
<svg version="1.1" id="Layer_1" xmlns="http://www.w3.org/2000/svg" xmlns:xlink="http://www.w3.org/1999/xlink" x="0px" y="0px"
	 width="580.012px" height="97.605px" viewBox="0 0 580.012 97.605" enable-background="new 0 0 580.012 97.605"
	 xml:space="preserve">
<g id="Layer_1_1_" display="none">
</g>
<g id="Layer_2">
	<g>
		<path d="M134.582,68.888l8.585-61.092h26.036l-8.585,61.092H134.582z M150.834,56.16l5.02-35.721h-2.893l-5.02,35.721H150.834z
			 M192.081,71.433h-13.136l3.708-26.389h-2.345l-3.589,25.539h-13.058l8.943-63.635h13.058l-3.565,25.37h2.345l3.565-25.37h13.136
			L192.081,71.433z"/>
		<path d="M229.264,24.936c-0.786,6.336-0.963,11.766-0.53,16.291c0.431,4.525,1.363,8.005,2.794,10.435
			c1.43,2.436,3.272,3.791,5.526,4.072l-4.976,13.15c-2.783-0.225-5.442-1.326-7.979-3.309c-2.537-1.979-4.604-4.893-6.199-8.74
			c-2.73,3.85-5.642,6.762-8.734,8.74c-3.094,1.979-6.063,3.084-8.909,3.309l-1.28-13.15c4.122-0.396,7.517-3.139,10.188-8.229
			c2.669-5.091,4.756-12.613,6.26-22.569H204.87l1.813-12.897h10.164l0.954-6.788h14.621l-0.954,6.788h10.164l-1.813,12.897
			L229.264,24.936L229.264,24.936z M247.429,6.949h14.698l-9.063,64.484h-14.698L247.429,6.949z"/>
		<path d="M319.256,68.888h-56.449l1.789-12.729h56.449L319.256,68.888z M267.602,45.894l5.377-38.268h14.699l-0.906,6.448h23.926
			l0.906-6.448h14.699l-5.379,38.268H267.602z M308.907,26.803h-23.925l-0.896,6.362h23.926L308.907,26.803z"/>
		<path d="M354.86,44.197h-8.836L344.34,56.16h10.398l-1.787,12.729h-24.314l5.26-37.417h8.99l1.551-11.03h-8.99l1.801-12.813H360
			L354.86,44.197z M370.776,70.584h-14.699l3.631-26.387h-3.285l1.789-12.729h3.285l3.523-24.521h14.697L370.776,70.584z
			 M387.702,71.433h-14.699l9.063-64.483h14.699L387.702,71.433z"/>
		<path d="M435.928,12.549c2.514,3.281,3.32,8.09,2.432,14.425l-3.172,22.569c-0.893,6.334-3.053,11.145-6.484,14.424
			c-3.432,3.281-8.014,4.922-13.748,4.922s-9.855-1.641-12.365-4.922c-2.51-3.279-3.318-8.09-2.43-14.424l3.172-22.569
			c0.891-6.334,3.053-11.144,6.484-14.425c3.432-3.279,8.014-4.921,13.748-4.921C429.297,7.627,433.418,9.269,435.928,12.549z
			 M418.428,23.579l-4.127,29.356c-0.301,2.148,0.514,3.225,2.441,3.225s3.043-1.074,3.346-3.225l4.125-29.356
			c0.303-2.149-0.512-3.224-2.438-3.224C419.844,20.355,418.731,21.429,418.428,23.579z M461.032,6.949l-9.063,64.484h-14.697
			l9.063-64.484H461.032z"/>
		<path d="M518.002,68.888h-56.293l1.787-12.729h56.295L518.002,68.888z M504.364,50.22l1.488-10.604h-38.467l1.787-12.727h38.469
			l0.896-6.363h-38.469l1.789-12.729h53.166l-6.744,42.425h-13.916V50.22z"/>
	</g>
	<g>
		<path d="M142.937,97.127h-7.329l4.134-19.852h9.14l1.294,10.109h0.263l4.137-10.109h9.169l-1.476,19.852h-7.33l0.946-9.635h-0.234
			l-4.041,9.635h-5.344l-1.362-9.635H144.7L142.937,97.127z"/>
		<path d="M187.644,97.127h-7.389l8.456-19.852h10.834l2.875,19.852h-7.388l-0.375-3.148h-5.781L187.644,97.127z M193.082,83.363
			l-2.212,5.559h3.212l-0.62-5.559H193.082z"/>
		<path d="M238.951,82.357h-5.081l-2.076,14.77h-7.009l2.076-14.77h-5.081l0.715-5.082h17.171L238.951,82.357z"/>
		<path d="M271.665,91.437l-0.228,5.348c-1.576,0.547-3.463,0.82-5.664,0.82c-2.082,0-3.774-0.209-5.08-0.623
			c-1.305-0.414-2.296-1.045-2.978-1.895c-0.678-0.846-1.086-1.922-1.225-3.229c-0.138-1.305-0.08-2.85,0.17-4.631
			c0.242-1.729,0.605-3.244,1.09-4.541c0.483-1.297,1.177-2.383,2.078-3.256c0.9-0.873,2.049-1.531,3.445-1.973
			c1.395-0.439,3.115-0.66,5.158-0.66c0.447,0,0.945,0.021,1.496,0.064c0.547,0.045,1.084,0.102,1.609,0.172
			c0.524,0.07,1.02,0.156,1.481,0.252c0.462,0.098,0.832,0.207,1.106,0.33l-1.735,4.871c-1.515-0.301-2.886-0.449-4.11-0.449
			c-1.267,0-2.156,0.105-2.675,0.318c-0.517,0.211-0.817,0.635-0.907,1.27l-1.168,8.313c0.436,0.088,0.879,0.154,1.329,0.197
			c0.451,0.045,0.921,0.066,1.406,0.066C268.217,92.203,270.016,91.949,271.665,91.437z"/>
		<path d="M303.627,97.127l0.986-7.014h-5.256l-0.986,7.014h-7.008l2.789-19.852h7.01l-0.986,7.014h5.256l0.986-7.014h7.008
			l-2.789,19.852H303.627z"/>
		<path d="M361.766,97.127H349.18l2.791-19.852h11.357c2.104,0,3.549,0.369,4.342,1.109c0.791,0.74,1.086,1.818,0.889,3.23
			c-0.201,1.43-0.639,2.527-1.311,3.295c-0.672,0.77-1.512,1.275-2.52,1.521l-0.027,0.186c2.76,0.441,3.928,2.189,3.498,5.24
			c-0.225,1.59-0.865,2.863-1.926,3.824C365.215,96.646,363.711,97.127,361.766,97.127z M360.045,89.213h-2.744l-0.457,3.258h2.688
			c0.99,0,1.564-0.549,1.719-1.643C361.401,89.752,360.999,89.213,360.045,89.213z M360.586,81.615h-2.219l-0.416,2.965h2.16
			c0.895,0,1.412-0.494,1.553-1.48C361.803,82.109,361.444,81.615,360.586,81.615z"/>
		<path d="M403.663,90.51l2.867,6.617h-7.709l-2.033-5.902h-1.518l-0.83,5.902h-7.01l2.789-19.852h11.039
			c5.021,0,7.207,2.32,6.557,6.961C407.37,87.414,405.985,89.504,403.663,90.51z M398.122,82.357h-1.605l-0.559,3.971h1.605
			c0.855,0,1.484-0.08,1.889-0.238c0.402-0.158,0.643-0.521,0.721-1.086l0.188-1.322c0.08-0.564-0.061-0.928-0.416-1.086
			C399.584,82.437,398.977,82.357,398.122,82.357z"/>
		<path d="M441.571,89.636h-7.008l-0.34,2.408h8.584l-0.713,5.082H426.5l2.789-19.852h15.418l-1.59,5.082h-7.533l-0.375,2.674h7.008
			L441.571,89.636z"/>
		<path d="M467.821,97.127h-7.391l8.455-19.852h10.834l2.875,19.852h-7.387l-0.377-3.148h-5.781L467.821,97.127z M473.26,83.363
			l-2.213,5.559h3.213l-0.621-5.559H473.26z"/>
		<path d="M509.827,88.498h-0.146l-1.213,8.629h-7.008l2.789-19.852h7.01l-1.139,8.1h0.145c0.064-0.316,0.146-0.604,0.238-0.859
			c0.094-0.258,0.203-0.48,0.328-0.676l4.34-6.564h7.592l-6.625,9.742l4.012,10.109h-7.594l-2.592-7.119
			c-0.068-0.193-0.115-0.416-0.139-0.662C509.799,89.099,509.801,88.816,509.827,88.498z"/>
	</g>
	<g>
		<g>
			<g>
				<path d="M74.828,67.127c0.003-0.025-1.258-0.066-2.804-0.094c-1.545-0.025-3.722-1.598-4.836-3.494l-2.095-3.564
					c-1.114-1.896-1.273-5.084-0.353-7.082L72.427,36.2c0.92-1.999,3.393-4.167,5.494-4.818l4.766-1.478
					c2.102-0.651,5.236-0.073,6.966,1.286l8.222,6.458c1.73,1.358,4.546,3.602,6.257,4.983l2.384,1.927
					c1.711,1.382,3.365,0.73,3.676-1.446l3.952-27.729c0.311-2.178,0.079-5.692-0.515-7.812l-5.624-6.169
					C105.945,0.631,102.629,0,100.635,0c-1.994,0-4.424,1.612-5.402,3.583L87.692,18.78c-0.978,1.971-3.506,4.086-5.619,4.701
					l-5.479,1.595c-2.113,0.615-5.22-0.039-6.905-1.453L54.948,11.26c-1.686-1.413-4.562-1.571-6.392-0.351l-22.995,15.34
					c-1.83,1.222-3.013,3.992-2.627,6.158l3.456,19.427c0.385,2.166-0.481,5.297-1.925,6.957l-4.069,4.678
					c-1.444,1.658-4.425,3.037-6.625,3.063l-7.895,0.088c-2.2,0.023-4.243,1.826-4.541,4.006l-1.227,8.994
					c-0.297,2.18,0.041,5.666,0.751,7.748l7.376,8.697c1.925,1.063,5.3,1.936,7.5,1.936h6.992c2.2,0,3.711-1.773,3.358-3.947
					l-2.979-18.324c-0.353-2.172,0.521-5.322,1.943-7.002l3.957-4.672C30.43,62.373,33.393,61,35.593,61h17.314
					c2.2,0,4.885,1.566,5.966,3.482l1.86,3.295c1.082,1.916,1.226,5.123,0.32,7.129l-8.784,19.447
					c-0.906,2.006,0.153,3.645,2.354,3.645h31.864c2.2,0,5.572-0.875,7.494-1.943l8.875-8.861c0.942-1.988,1.959-5.398,2.26-7.578
					l1.083-7.824c0.301-2.18-1.252-4-3.451-4.045l-23.927-0.488C76.621,67.213,74.824,67.154,74.828,67.127z"/>
			</g>
		</g>
	</g>
</g>
</svg>
